<mxfile host="app.diagrams.net" modified="2024-01-18T10:54:03.747Z" agent="Mozilla/5.0 (Windows NT 10.0; Win64; x64) AppleWebKit/537.36 (KHTML, like Gecko) Chrome/120.0.0.0 Safari/537.36" version="22.1.21" etag="Y2pZ012rlzlF8E1E0Wjr" type="github">
  <diagram name="PÃ¡gina-1" id="P6lNU6xdoZbRA_q9PBSl">
    <mxGraphModel>
      <root>
        <mxCell id="0" />
        <mxCell id="1" parent="0" />
      </root>
    </mxGraphModel>
  </diagram>
</mxfile>
